<?xml version='1.0' encoding='utf-8'?>
<svg xmlns="http://www.w3.org/2000/svg" version="1.1" id="Contours" x="0px" y="0px" width="426.935791" height="505.996033" viewBox="0.000000 0.000000 426.935791 505.996033" stroke="black" fill="none" stroke-linecap="round" stroke-linejoin="round"> <desc> </desc> <path d="M408.6 281.2 C356.6 304.0 299.0 309.9 242.3 313.0 C177.7 316.6 112.0 316.7 49.5 299.9 C55.2 332.7 73.9 361.8 83.6 393.7 C85.6 400.1 86.8 408.2 81.7 412.6 C76.0 417.6 66.9 413.8 61.1 408.9 C34.3 386.6 28.0 348.4 27.2 313.6 C27.1 305.7 27.1 297.6 24.4 290.1 C19.4 276.5 18.4 261.4 21.4 247.2 C32.0 257.7 47.9 260.4 62.7 262.3 C169.7 276.1 279.5 274.8 384.6 250.2 C399.1 246.8 414.9 242.1 423.3 229.7 C424.3 259.5 425.2 289.3 426.2 319.1 C426.9 343.7 417.6 368.4 400.9 386.4 C396.1 391.4 386.8 387.6 384.2 381.1 C381.6 374.7 383.5 367.4 385.4 360.8 C393.1 334.2 400.9 307.7 408.6 281.2 " fill="#000000" stroke="none"/> <path d="M347.4 215.8 C347.5 215.2 347.0 216.3 347.4 215.8 " fill="#000000" stroke="none"/> <path d="M80.8 228.7 C79.8 229.0 78.9 229.4 77.9 229.7 C77.5 229.1 77.3 228.4 77.5 227.7 C74.0 226.6 72.2 222.7 72.0 219.1 C71.7 215.4 72.9 211.5 75.5 208.8 C78.2 206.2 82.4 205.1 85.8 206.5 C87.0 209.5 88.9 212.3 91.2 214.6 C90.6 218.8 89.9 223.0 89.2 227.2 C87.0 229.2 83.6 229.8 80.8 228.7 " fill="#000000" stroke="none"/> <path d="M347.8 210.3 C353.3 209.0 359.5 212.9 360.7 218.4 C361.9 224.0 357.8 230.1 352.2 231.1 C351.1 229.0 349.9 227.0 348.7 224.9 C348.7 226.5 345.8 226.8 345.5 225.2 C346.4 225.5 347.4 224.6 347.2 223.7 C347.1 222.8 345.8 222.3 345.1 222.9 C345.5 221.5 345.9 220.0 346.3 218.6 C346.8 215.8 347.3 213.1 347.8 210.3 " fill="#000000" stroke="none"/> <path d="M345.5 191.8 C338.4 199.5 325.3 199.5 316.8 193.3 C308.3 187.1 304.2 176.3 303.8 165.8 C303.7 161.8 304.0 157.7 305.7 154.1 C309.9 145.5 321.4 142.1 330.4 145.3 C339.4 148.5 345.9 156.9 348.9 165.9 C351.7 174.6 351.6 185.0 345.5 191.8 " fill="#000000" stroke="none"/> <path d="M96.5 183.9 C96.4 176.3 98.9 168.6 103.9 162.8 C108.9 157.1 116.4 153.5 124.0 153.6 C131.7 153.8 139.2 157.9 143.5 164.2 C151.3 175.8 147.2 192.7 136.8 201.8 C130.1 207.6 120.6 210.9 112.2 208.1 C102.5 204.8 96.7 194.2 96.5 183.9 " fill="#000000" stroke="none"/> <path d="M203.9 228.4 C201.7 227.5 199.4 226.0 198.9 223.6 C198.3 221.3 200.7 218.4 202.9 219.4 C209.8 222.5 218.6 220.9 223.9 215.5 C227.0 212.3 228.4 206.1 224.4 204.0 C218.2 200.8 215.7 192.1 219.1 186.0 C222.6 180.0 231.5 177.8 237.4 181.5 C243.3 185.3 245.1 194.2 241.1 199.9 C239.3 202.5 236.4 204.8 236.4 207.9 C236.5 210.2 238.1 212.2 240.0 213.5 C245.7 217.6 254.0 217.3 259.4 213.0 C261.2 211.6 264.1 213.4 264.3 215.7 C264.5 218.0 263.0 220.1 261.3 221.6 C254.7 227.5 244.1 228.2 236.7 223.3 C234.6 221.8 231.5 220.0 229.8 222.0 C223.6 229.2 212.7 231.9 203.9 228.4 " fill="#000000" stroke="none"/> <path d="M356.8 0.3 C376.8 0.7 395.3 13.5 406.2 30.4 C412.6 40.3 416.8 51.9 416.3 63.7 C415.5 80.7 405.3 95.6 395.5 109.6 C394.2 111.5 392.7 113.5 390.6 114.6 C388.4 115.7 385.4 115.4 384.1 113.4 C362.2 78.7 336.0 46.8 306.2 18.6 C321.9 9.4 338.6 0.0 356.8 0.3 " fill="#000000" stroke="none"/> <path d="M86.0 14.5 C95.9 17.8 105.2 23.9 115.6 24.2 C87.0 52.5 62.9 85.4 44.6 121.3 C42.8 125.0 39.8 129.3 35.7 128.5 C34.3 128.3 33.1 127.4 32.0 126.5 C9.0 108.1 0.0 73.7 12.4 47.1 C24.7 20.4 58.1 5.1 86.0 14.5 " fill="#000000" stroke="none"/> <path d="M107.0 477.0 C104.9 474.0 103.0 470.7 103.2 467.0 C103.4 463.4 106.6 459.8 110.1 460.4 C130.7 463.6 150.7 470.2 169.1 479.9 C183.1 487.2 199.8 486.4 215.5 485.4 C242.4 483.7 269.3 482.0 296.2 480.2 C299.3 480.0 302.7 479.7 304.8 477.5 C321.2 461.3 341.2 448.9 363.0 441.4 C362.1 457.3 353.4 472.6 340.3 481.5 C327.1 490.4 309.7 492.7 294.7 487.6 C282.6 483.6 269.5 486.8 257.0 488.8 C244.0 490.8 230.8 491.5 217.7 490.8 C204.2 490.1 189.8 488.1 177.7 494.2 C154.1 506.0 122.5 498.3 107.0 477.0 " fill="#000000" stroke="none"/> </svg>